<svg xmlns="http://www.w3.org/2000/svg" viewBox="0 0 370 300" width="370" height="300" font-family="Consolas, Menlo, monospace">
<rect x="0" y="0" width="370" height="300" rx="10" fill="#1a1b26" stroke="#2a2e42"/>
<circle cx="16" cy="16" r="4.5" fill="#f7768e"/>
<circle cx="32" cy="16" r="4.5" fill="#e0af68"/>
<circle cx="48" cy="16" r="4.5" fill="#9ece6a"/>
<text x="185.0" y="20" text-anchor="middle" fill="#565f89" font-size="11">piyush@github ~ $ ./whoami.sh</text>
<text x="40" y="50" fill="#414868" font-size="12">+-------------------------</text>
<text x="40" y="220" fill="#414868" font-size="12">+-------------------------</text>
<text x="40" y="68" fill="#414868" font-size="12">|</text>
<text x="322" y="68" fill="#414868" font-size="12">|</text>
<text x="40" y="86" fill="#414868" font-size="12">|</text>
<text x="322" y="86" fill="#414868" font-size="12">|</text>
<text x="40" y="104" fill="#414868" font-size="12">|</text>
<text x="322" y="104" fill="#414868" font-size="12">|</text>
<text x="40" y="122" fill="#414868" font-size="12">|</text>
<text x="322" y="122" fill="#414868" font-size="12">|</text>
<text x="40" y="140" fill="#414868" font-size="12">|</text>
<text x="322" y="140" fill="#414868" font-size="12">|</text>
<text x="40" y="158" fill="#414868" font-size="12">|</text>
<text x="322" y="158" fill="#414868" font-size="12">|</text>
<text x="40" y="176" fill="#414868" font-size="12">|</text>
<text x="322" y="176" fill="#414868" font-size="12">|</text>
<text x="40" y="194" fill="#414868" font-size="12">|</text>
<text x="322" y="194" fill="#414868" font-size="12">|</text>
<text x="40" y="212" fill="#414868" font-size="12">|</text>
<text x="322" y="212" fill="#414868" font-size="12">|</text>
<text x="185.0" y="149.0" text-anchor="middle" fill="#7aa2f7" font-size="64" font-weight="bold" opacity="0">PJ<animate attributeName="opacity" from="0" to="1" begin="0.2s" dur="0.6s" fill="freeze"/></text>
<text x="185.0" y="254" text-anchor="middle" fill="#565f89" font-size="11">// portrait pending</text>
<text x="185.0" y="272" text-anchor="middle" fill="#565f89" font-size="10">run make_ascii_svg.py on a photo to replace this</text>
</svg>